<svg xmlns="http://www.w3.org/2000/svg" width="157" height="165" fill="none" viewBox="0 0 157 165">
    <path fill="#fff" d="M-8 0H157V165H-8z"/>
    <path fill="#57BE55" d="M76 10c15.68 0 30.892 5.34 43.131 15.142 12.239 9.8 20.774 23.478 24.201 38.779 3.427 15.3 1.54 31.312-5.349 45.397-6.89 14.085-18.371 25.403-32.553 32.091-14.182 6.688-30.219 8.346-45.47 4.701-15.25-3.645-28.803-12.375-38.429-24.753C11.906 108.98 6.783 93.693 7.007 78.015c.224-15.678 5.78-30.812 15.756-42.91l12.582 10.374c-7.617 9.239-11.861 20.796-12.032 32.769-.171 11.972 3.741 23.646 11.091 33.099 7.351 9.452 17.702 16.119 29.348 18.902 11.646 2.783 23.892 1.517 34.722-3.59 10.831-5.107 19.598-13.75 24.86-24.507 5.261-10.756 6.702-22.983 4.085-34.668-2.617-11.684-9.135-22.129-18.482-29.613C99.591 30.386 87.974 26.306 76 26.306V10z"/>
    <path fill="#fff" d="M76.16 10.105c-10.17-.008-20.215 2.232-29.418 6.56C37.54 20.992 29.407 27.3 22.927 35.139l12.568 10.39c4.948-5.985 11.159-10.802 18.187-14.107 7.028-3.305 14.7-5.016 22.465-5.01l.013-16.307z"/>
    <path fill="#3B435C" d="M59.59 81.75c-.68.809-1.494 1.459-2.444 1.951-.937.492-1.968.739-3.093.739-1.477 0-2.766-.364-3.867-1.09-1.09-.727-1.934-1.746-2.532-3.059-.597-1.324-.896-2.783-.896-4.377 0-1.71.322-3.252.967-4.623.656-1.371 1.582-2.42 2.777-3.147 1.195-.726 2.59-1.09 4.183-1.09 2.532 0 4.524.95 5.977 2.848 1.465 1.887 2.197 4.465 2.197 7.735v.949c0 4.98-.984 8.62-2.953 10.916-1.968 2.285-4.94 3.457-8.912 3.516h-.633v-2.743h.686c2.684-.047 4.746-.744 6.187-2.091 1.442-1.36 2.227-3.504 2.356-6.434zm-5.01 0c1.09 0 2.092-.334 3.006-1.002.926-.668 1.6-1.494 2.021-2.479v-1.3c0-2.133-.462-3.867-1.388-5.203-.926-1.336-2.098-2.004-3.516-2.004-1.43 0-2.578.55-3.445 1.652-.867 1.09-1.301 2.531-1.301 4.324 0 1.746.416 3.188 1.248 4.325.844 1.124 1.969 1.687 3.375 1.687zm17.49-3.129h2.444c1.535-.023 2.742-.428 3.62-1.213.88-.785 1.32-1.846 1.32-3.181 0-3-1.495-4.5-4.483-4.5-1.407 0-2.532.404-3.375 1.212-.832.797-1.248 1.858-1.248 3.182h-3.252c0-2.027.738-3.709 2.215-5.045 1.488-1.347 3.374-2.021 5.66-2.021 2.414 0 4.306.638 5.677 1.916 1.371 1.277 2.057 3.052 2.057 5.326 0 1.113-.363 2.191-1.09 3.234-.715 1.043-1.693 1.822-2.935 2.338 1.406.445 2.49 1.184 3.252 2.215.773 1.031 1.16 2.291 1.16 3.78 0 2.296-.75 4.118-2.25 5.466-1.5 1.348-3.451 2.022-5.854 2.022-2.402 0-4.36-.65-5.87-1.952-1.5-1.3-2.25-3.017-2.25-5.15h3.269c0 1.348.44 2.426 1.318 3.234.879.809 2.057 1.213 3.533 1.213 1.57 0 2.772-.41 3.604-1.23.832-.82 1.248-1.998 1.248-3.533 0-1.489-.457-2.631-1.371-3.428-.914-.797-2.233-1.207-3.955-1.23H72.07V78.62zm15.205-6.293c0-1.535.487-2.8 1.46-3.797.984-.996 2.243-1.494 3.779-1.494 1.558 0 2.818.504 3.779 1.512.973.996 1.459 2.29 1.459 3.885v1.248c0 1.546-.492 2.812-1.477 3.796-.972.973-2.215 1.46-3.726 1.46-1.524 0-2.783-.487-3.78-1.46-.996-.984-1.494-2.29-1.494-3.92v-1.23zm2.426 1.354c0 .914.258 1.67.774 2.267.515.586 1.207.88 2.074.88.832 0 1.5-.288 2.004-.862.515-.574.773-1.36.773-2.356v-1.283c0-.914-.252-1.67-.756-2.267-.504-.598-1.19-.897-2.056-.897-.867 0-1.553.299-2.057.897-.504.597-.756 1.376-.756 2.337v1.284zm10.037 13.043c0-1.535.487-2.795 1.459-3.78.985-.996 2.244-1.494 3.78-1.494 1.535 0 2.794.492 3.779 1.477.984.984 1.476 2.29 1.476 3.92v1.248c0 1.535-.492 2.8-1.476 3.797-.973.984-2.221 1.476-3.744 1.476-1.524 0-2.783-.486-3.78-1.459-.996-.984-1.494-2.29-1.494-3.92v-1.265zm2.426 1.37c0 .927.258 1.688.774 2.286.515.586 1.207.879 2.074.879.843 0 1.517-.287 2.021-.862.504-.585.756-1.376.756-2.373v-1.3c0-.926-.258-1.682-.773-2.268-.504-.586-1.184-.879-2.039-.879-.832 0-1.512.293-2.039.879-.516.574-.774 1.354-.774 2.338v1.3zm-8.877 2.971l-1.846-1.16 12.498-20.004 1.846 1.16-12.498 20.004z"/>
</svg>
