<svg xmlns="http://www.w3.org/2000/svg" width="160" height="166" fill="none" viewBox="0 0 160 166">
    <path fill="#fff" d="M0 0H181V180H0z"/>
    <path fill="#57BE55" d="M84 21c16.276 0 32.028 5.753 44.472 16.244 12.445 10.49 20.78 25.042 23.533 41.083 2.754 16.041-.252 32.54-8.486 46.579-8.233 14.04-21.165 24.717-36.51 30.144-15.344 5.428-32.113 5.257-47.343-.483-15.23-5.74-27.941-16.679-35.886-30.884-7.945-14.205-10.613-30.762-7.533-46.743 3.081-15.982 11.712-30.36 24.368-40.594l10.254 12.68c-9.665 7.816-16.256 18.796-18.609 31-2.353 12.205-.315 24.848 5.752 35.696 6.068 10.848 15.774 19.202 27.405 23.585 11.63 4.383 24.437 4.514 36.154.369 11.718-4.144 21.594-12.298 27.881-23.02 6.288-10.721 8.584-23.32 6.481-35.57-2.103-12.25-8.468-23.363-17.971-31.374-9.504-8.01-21.533-12.405-33.962-12.405V21z"/>
    <path fill="#fff" d="M84.16 21.105c-15.914-.013-31.343 5.476-43.674 15.537l10.309 12.635c9.416-7.683 21.2-11.874 33.352-11.864l.013-16.308z"/>
    <path fill="#3B435C" d="M67.59 91.75c-.68.809-1.494 1.459-2.444 1.951-.937.492-1.968.739-3.093.739-1.477 0-2.766-.364-3.867-1.09-1.09-.727-1.934-1.746-2.532-3.059-.597-1.324-.896-2.783-.896-4.377 0-1.71.322-3.252.967-4.623.656-1.371 1.582-2.42 2.777-3.147 1.195-.726 2.59-1.09 4.183-1.09 2.532 0 4.524.95 5.977 2.848 1.465 1.887 2.197 4.465 2.197 7.735v.949c0 4.98-.984 8.62-2.953 10.916-1.969 2.285-4.94 3.457-8.912 3.516h-.633v-2.743h.686c2.684-.046 4.746-.744 6.187-2.091 1.442-1.36 2.227-3.504 2.356-6.434zm-5.01 0c1.09 0 2.092-.334 3.006-1.002.926-.668 1.6-1.494 2.021-2.479v-1.3c0-2.133-.463-3.867-1.388-5.203-.926-1.336-2.098-2.004-3.516-2.004-1.43 0-2.578.55-3.445 1.652-.867 1.09-1.301 2.531-1.301 4.324 0 1.746.416 3.188 1.248 4.325.844 1.124 1.969 1.687 3.375 1.687zM92.111 103h-16.77v-2.338l8.86-9.844c1.313-1.488 2.215-2.695 2.707-3.62.504-.938.756-1.905.756-2.901 0-1.336-.404-2.432-1.213-3.287-.808-.856-1.886-1.283-3.234-1.283-1.617 0-2.877.462-3.78 1.388-.89.914-1.335 2.192-1.335 3.832H74.85c0-2.355.756-4.26 2.267-5.713 1.524-1.453 3.557-2.18 6.1-2.18 2.379 0 4.26.628 5.642 1.882 1.383 1.242 2.075 2.9 2.075 4.974 0 2.52-1.606 5.52-4.817 9l-6.855 7.436h12.85V103zm3.164-20.672c0-1.535.487-2.8 1.46-3.797.984-.996 2.243-1.494 3.779-1.494 1.558 0 2.818.504 3.779 1.512.973.996 1.459 2.29 1.459 3.885v1.248c0 1.546-.492 2.812-1.477 3.796-.972.973-2.214 1.46-3.726 1.46-1.524 0-2.783-.487-3.78-1.46-.996-.984-1.494-2.29-1.494-3.92v-1.23zm2.426 1.354c0 .914.258 1.67.774 2.267.515.586 1.207.88 2.074.88.832 0 1.5-.288 2.004-.862.515-.574.773-1.36.773-2.356v-1.283c0-.914-.252-1.67-.756-2.267-.504-.598-1.189-.897-2.056-.897s-1.553.299-2.057.897c-.504.597-.756 1.376-.756 2.337v1.284zm10.037 13.043c0-1.535.487-2.795 1.459-3.78.985-.996 2.244-1.494 3.78-1.494 1.535 0 2.794.492 3.779 1.477.984.984 1.476 2.29 1.476 3.92v1.248c0 1.535-.492 2.8-1.476 3.797-.973.984-2.221 1.476-3.744 1.476-1.524 0-2.783-.486-3.78-1.459-.996-.984-1.494-2.29-1.494-3.92v-1.265zm2.426 1.37c0 .927.258 1.688.774 2.286.515.586 1.207.879 2.074.879.843 0 1.517-.287 2.021-.862.504-.585.756-1.376.756-2.373v-1.3c0-.926-.258-1.682-.773-2.268-.504-.586-1.184-.879-2.039-.879-.832 0-1.512.293-2.039.879-.516.574-.774 1.354-.774 2.338v1.3zm-8.877 2.971l-1.846-1.16 12.498-20.004 1.846 1.16-12.498 20.004z"/>
</svg>
